<svg width="44" height="44" viewBox="0 0 44 44" fill="none" xmlns="http://www.w3.org/2000/svg">
<path fill-rule="evenodd" clip-rule="evenodd" d="M12.3125 9C11.4841 9 10.8125 9.67157 10.8125 10.5V12.25C10.8125 12.5137 10.8805 12.7615 11 12.9768V13.25V14.6327C9.23833 15.3902 8 17.1207 8 19.1429V32.4018C8 33.5 8.90392 34.375 10 34.375H22C23.0961 34.375 24 33.5 24 32.4018V19.1429C24 17.1207 22.7617 15.3902 21 14.6327V13.25V12.9768C21.1195 12.7615 21.1875 12.5137 21.1875 12.25V10.5C21.1875 9.67157 20.5159 9 19.6875 9H12.3125ZM19.6875 12.75C19.9636 12.75 20.1875 12.5261 20.1875 12.25V10.5C20.1875 10.2239 19.9636 10 19.6875 10H12.3125C12.0364 10 11.8125 10.2239 11.8125 10.5V12.25C11.8125 12.5261 12.0364 12.75 12.3125 12.75H19.6875ZM12.3125 13.75H12V14.9747V15.3304L11.664 15.4471C10.1065 15.9877 9 17.4427 9 19.1429V32.4018C9 32.9308 9.43916 33.375 10 33.375H22C22.5608 33.375 23 32.9308 23 32.4018V19.1429C23 17.4427 21.8935 15.9877 20.336 15.4471L20 15.3304V14.9747V13.75H19.6875H12.3125ZM14.2288 20.8948C14.2288 20.3425 14.6765 19.8948 15.2288 19.8948H16.7701C17.3224 19.8948 17.7701 20.3425 17.7701 20.8948V22.4361H19.3114C19.8637 22.4361 20.3114 22.8838 20.3114 23.4361V24.9774C20.3114 25.5297 19.8637 25.9774 19.3114 25.9774H17.7701V27.5187C17.7701 28.0709 17.3224 28.5187 16.7701 28.5187H15.2288C14.6765 28.5187 14.2288 28.0709 14.2288 27.5187V25.9774H12.6875C12.1352 25.9774 11.6875 25.5296 11.6875 24.9774V23.4361C11.6875 22.8838 12.1352 22.4361 12.6875 22.4361H14.2288V20.8948ZM16.7701 20.8948L15.2288 20.8948V22.9361C15.2288 23.2122 15.0049 23.4361 14.7288 23.4361H12.6875V24.9774H14.7288C15.0049 24.9774 15.2288 25.2012 15.2288 25.4774V27.5187H16.7701V25.4774C16.7701 25.2012 16.9939 24.9774 17.2701 24.9774L19.3114 24.9774L19.3114 23.4361H17.2701C16.9939 23.4361 16.7701 23.2122 16.7701 22.9361V20.8948Z" fill="black"/>
<path fill-rule="evenodd" clip-rule="evenodd" d="M27.5332 29.9023C30.5708 29.9023 33.0332 27.4399 33.0332 24.4023C33.0332 21.3648 30.5708 18.9023 27.5332 18.9023C24.4956 18.9023 22.0332 21.3648 22.0332 24.4023C22.0332 27.4399 24.4956 29.9023 27.5332 29.9023ZM30.3868 22.2559C30.582 22.0606 30.582 21.7441 30.3868 21.5488C30.1915 21.3535 29.8749 21.3535 29.6796 21.5488L24.6796 26.5488C24.4844 26.7441 24.4844 27.0606 24.6796 27.2559C24.8749 27.4512 25.1915 27.4512 25.3868 27.2559L30.3868 22.2559Z" fill="#F16C7C"/>
<path d="M25.5166 30.7915C25.5166 30.7915 26.2041 33.449 31.0166 33.449C35.8291 33.449 36.5166 30.7915 36.5166 30.7915V33.8898C36.5166 34.4202 36.3045 34.9313 35.8529 35.2096C35.0421 35.7093 33.4676 36.4105 31.0166 36.4105C28.5656 36.4105 26.9911 35.7093 26.1803 35.2096C25.7287 34.9313 25.5166 34.4202 25.5166 33.8898V30.7915Z" fill="#F16C7C"/>
<path fill-rule="evenodd" clip-rule="evenodd" d="M31.0166 33.5518C34.0542 33.5518 36.5166 32.3205 36.5166 30.8018C36.5166 29.283 34.0542 28.0518 31.0166 28.0518C27.979 28.0518 25.5166 29.283 25.5166 30.8018C25.5166 32.3205 27.979 33.5518 31.0166 33.5518ZM34.5521 31.2904C34.8283 31.2904 35.0521 31.0666 35.0521 30.7904C35.0521 30.5143 34.8283 30.2904 34.5521 30.2904H27.4811C27.2049 30.2904 26.9811 30.5143 26.9811 30.7904C26.9811 31.0666 27.2049 31.2904 27.4811 31.2904H34.5521Z" fill="#FFCCD7"/>
<path fill-rule="evenodd" clip-rule="evenodd" d="M12.3125 9C11.4841 9 10.8125 9.67157 10.8125 10.5V12.25C10.8125 12.5137 10.8805 12.7615 11 12.9768V13.25V14.6327C9.23833 15.3902 8 17.1207 8 19.1429V32.4018C8 33.5 8.90392 34.375 10 34.375H22C23.0961 34.375 24 33.5 24 32.4018V19.1429C24 17.1207 22.7617 15.3902 21 14.6327V13.25V12.9768C21.1195 12.7615 21.1875 12.5137 21.1875 12.25V10.5C21.1875 9.67157 20.5159 9 19.6875 9H12.3125ZM19.6875 12.75C19.9636 12.75 20.1875 12.5261 20.1875 12.25V10.5C20.1875 10.2239 19.9636 10 19.6875 10H12.3125C12.0364 10 11.8125 10.2239 11.8125 10.5V12.25C11.8125 12.5261 12.0364 12.75 12.3125 12.75H19.6875ZM12.3125 13.75H12V14.9747V15.3304L11.664 15.4471C10.1065 15.9877 9 17.4427 9 19.1429V32.4018C9 32.9308 9.43916 33.375 10 33.375H22C22.5608 33.375 23 32.9308 23 32.4018V19.1429C23 17.4427 21.8935 15.9877 20.336 15.4471L20 15.3304V14.9747V13.75H19.6875H12.3125ZM14.2288 20.8948C14.2288 20.3425 14.6765 19.8948 15.2288 19.8948H16.7701C17.3224 19.8948 17.7701 20.3425 17.7701 20.8948V22.4361H19.3114C19.8637 22.4361 20.3114 22.8838 20.3114 23.4361V24.9774C20.3114 25.5297 19.8637 25.9774 19.3114 25.9774H17.7701V27.5187C17.7701 28.0709 17.3224 28.5187 16.7701 28.5187H15.2288C14.6765 28.5187 14.2288 28.0709 14.2288 27.5187V25.9774H12.6875C12.1352 25.9774 11.6875 25.5296 11.6875 24.9774V23.4361C11.6875 22.8838 12.1352 22.4361 12.6875 22.4361H14.2288V20.8948ZM16.7701 20.8948L15.2288 20.8948V22.9361C15.2288 23.2122 15.0049 23.4361 14.7288 23.4361H12.6875V24.9774H14.7288C15.0049 24.9774 15.2288 25.2012 15.2288 25.4774V27.5187H16.7701V25.4774C16.7701 25.2012 16.9939 24.9774 17.2701 24.9774L19.3114 24.9774L19.3114 23.4361H17.2701C16.9939 23.4361 16.7701 23.2122 16.7701 22.9361V20.8948Z" fill="black"/>
<path fill-rule="evenodd" clip-rule="evenodd" d="M27.5332 29.9023C30.5708 29.9023 33.0332 27.4399 33.0332 24.4023C33.0332 21.3648 30.5708 18.9023 27.5332 18.9023C24.4956 18.9023 22.0332 21.3648 22.0332 24.4023C22.0332 27.4399 24.4956 29.9023 27.5332 29.9023ZM30.3868 22.2559C30.582 22.0606 30.582 21.7441 30.3868 21.5488C30.1915 21.3535 29.8749 21.3535 29.6796 21.5488L24.6796 26.5488C24.4844 26.7441 24.4844 27.0606 24.6796 27.2559C24.8749 27.4512 25.1915 27.4512 25.3868 27.2559L30.3868 22.2559Z" fill="#F16C7C"/>
<path d="M25.5166 30.7915C25.5166 30.7915 26.2041 33.449 31.0166 33.449C35.8291 33.449 36.5166 30.7915 36.5166 30.7915V33.8898C36.5166 34.4202 36.3045 34.9313 35.8529 35.2096C35.0421 35.7093 33.4676 36.4105 31.0166 36.4105C28.5656 36.4105 26.9911 35.7093 26.1803 35.2096C25.7287 34.9313 25.5166 34.4202 25.5166 33.8898V30.7915Z" fill="#F16C7C"/>
<path fill-rule="evenodd" clip-rule="evenodd" d="M31.0166 33.5518C34.0542 33.5518 36.5166 32.3205 36.5166 30.8018C36.5166 29.283 34.0542 28.0518 31.0166 28.0518C27.979 28.0518 25.5166 29.283 25.5166 30.8018C25.5166 32.3205 27.979 33.5518 31.0166 33.5518ZM34.5521 31.2904C34.8283 31.2904 35.0521 31.0666 35.0521 30.7904C35.0521 30.5143 34.8283 30.2904 34.5521 30.2904H27.4811C27.2049 30.2904 26.9811 30.5143 26.9811 30.7904C26.9811 31.0666 27.2049 31.2904 27.4811 31.2904H34.5521Z" fill="#FFCCD7"/>
</svg>
